<svg width="18" height="23" viewBox="0 0 18 23" fill="none" xmlns="http://www.w3.org/2000/svg">
<path d="M16.4691 19.4138C15.5483 20.7894 14.5721 22.1317 13.0855 22.1539C11.599 22.1872 11.122 21.2775 9.43575 21.2775C7.73843 21.2775 7.21703 22.1317 5.80815 22.1872C4.35489 22.2426 3.25662 20.7228 2.32476 19.3805C0.427758 16.6404 -1.0255 11.5928 0.926969 8.19816C1.89211 6.51194 3.62271 5.44695 5.49753 5.41367C6.91751 5.39148 8.27092 6.37881 9.14732 6.37881C10.0126 6.37881 11.6545 5.1918 13.374 5.3693C14.0951 5.40258 16.1141 5.65773 17.412 7.56583C17.3122 7.63239 15.0047 8.98581 15.0269 11.7925C15.0602 15.1427 17.9667 16.2632 18 16.2743C17.9667 16.3519 17.5341 17.8718 16.4691 19.4138ZM10.1346 1.66404C10.9445 0.74327 12.2868 0.0443744 13.3962 0C13.5404 1.29795 13.019 2.60699 12.2424 3.53885C11.477 4.48181 10.2123 5.21399 8.96982 5.11414C8.80342 3.83838 9.42466 2.50715 10.1346 1.66404Z" fill="white"/>
</svg>
